<?xml version="1.0" encoding="utf-8"?><!-- Generator: Adobe Illustrator 23.0.1, SVG Export Plug-In . SVG Version: 6.00 Build 0)  --><svg  xmlns="http://www.w3.org/2000/svg" xmlns:xlink="http://www.w3.org/1999/xlink" viewBox="0 0 24 24" width="24px" height="24px"><g><polygon ill="#1D4ED8" points="22,20 20,22 14,16 14,14 16,14  "/></g><path d="M9,16c-3.9,0-7-3.1-7-7c0-3.9,3.1-7,7-7c3.9,0,7,3.1,7,7C16,12.9,12.9,16,9,16z M9,4C6.2,4,4,6.2,4,9c0,2.8,2.2,5,5,5  c2.8,0,5-2.2,5-5C14,6.2,11.8,4,9,4z"/><rect x="13.7" y="12.5" transform="matrix(0.7072 -0.707 0.707 0.7072 -5.9018 14.2474)" width="1" height="3.5"/></svg>